<svg xmlns="http://www.w3.org/2000/svg" width="1439" height="700" fill="none" viewBox="0 0 1439 700"><rect width="1440" height="100" x="-1" fill="#CB8434"/><rect width="1440" height="2" x="-1" y="10" fill="#BB7226"/><rect width="1440" height="2" x="-1" y="31" fill="#BB7226"/><rect width="1440" height="2" x="-1" y="52" fill="#BB7226"/><rect width="1440" height="2" x="-1" y="73" fill="#BB7226"/><rect width="1440" height="2" x="-1" y="94" fill="#BB7226"/><rect width="1440" height="100" x="-1" y="100" fill="#CB8434"/><rect width="1440" height="2" x="-1" y="110" fill="#BB7226"/><rect width="1440" height="2" x="-1" y="131" fill="#BB7226"/><rect width="1440" height="2" x="-1" y="152" fill="#BB7226"/><rect width="1440" height="2" x="-1" y="173" fill="#BB7226"/><rect width="1440" height="2" x="-1" y="194" fill="#BB7226"/><rect width="1440" height="100" x="-1" y="200" fill="#CB8434"/><rect width="1440" height="2" x="-1" y="210" fill="#BB7226"/><rect width="1440" height="2" x="-1" y="231" fill="#BB7226"/><rect width="1440" height="2" x="-1" y="252" fill="#BB7226"/><rect width="1440" height="2" x="-1" y="273" fill="#BB7226"/><rect width="1440" height="2" x="-1" y="294" fill="#BB7226"/><rect width="1440" height="100" x="-1" y="300" fill="#CB8434"/><rect width="1440" height="2" x="-1" y="310" fill="#BB7226"/><rect width="1440" height="2" x="-1" y="331" fill="#BB7226"/><rect width="1440" height="2" x="-1" y="352" fill="#BB7226"/><rect width="1440" height="2" x="-1" y="373" fill="#BB7226"/><rect width="1440" height="2" x="-1" y="394" fill="#BB7226"/><rect width="1440" height="100" x="-1" y="400" fill="#CB8434"/><rect width="1440" height="2" x="-1" y="410" fill="#BB7226"/><rect width="1440" height="2" x="-1" y="431" fill="#BB7226"/><rect width="1440" height="2" x="-1" y="452" fill="#BB7226"/><rect width="1440" height="2" x="-1" y="473" fill="#BB7226"/><rect width="1440" height="2" x="-1" y="494" fill="#BB7226"/><rect width="1440" height="100" x="-1" y="500" fill="#CB8434"/><rect width="1440" height="2" x="-1" y="510" fill="#BB7226"/><rect width="1440" height="2" x="-1" y="531" fill="#BB7226"/><rect width="1440" height="2" x="-1" y="552" fill="#BB7226"/><rect width="1440" height="2" x="-1" y="573" fill="#BB7226"/><rect width="1440" height="2" x="-1" y="594" fill="#BB7226"/><rect width="1440" height="100" x="-1" y="600" fill="#CB8434"/><rect width="1440" height="2" x="-1" y="610" fill="#BB7226"/><rect width="1440" height="2" x="-1" y="631" fill="#BB7226"/><rect width="1440" height="2" x="-1" y="652" fill="#BB7226"/><rect width="1440" height="2" x="-1" y="673" fill="#BB7226"/><rect width="1440" height="2" x="-1" y="694" fill="#BB7226"/></svg>