<svg xmlns="http://www.w3.org/2000/svg" width="1440" height="390" fill="none" viewBox="0 0 1440 390"><mask id="mask0" width="1440" height="390" x="0" y="0" mask-type="alpha" maskUnits="userSpaceOnUse"><rect width="1439" height="389" x=".5" y=".5" fill="#084482" stroke="#000"/></mask><g mask="url(#mask0)"><rect width="1439" height="389" x=".5" y=".5" fill="#084482" stroke="#000"/><g stroke="#00AEFF" stroke-width="3" opacity=".2"><path d="m-72.414 86.266c143.76-32.804 60.103 161.77 382.48 154.56 142.63-3.19 415.97-303.91 323.33-427.45"/><path d="m-63.283 126.28c143.82-32.813 56.739 185.23 382.71 154.97 146.04-13.56 482.93-363 390.22-486.79"/><path d="m-57.34 152.32c143.82-32.81 56.738 185.23 382.71 154.97 146.05-13.56 482.94-362.99 390.22-486.79"/><path d="m-51.069 179.81c143.82-32.81 56.738 185.23 382.71 154.96 146.05-13.56 482.94-362.99 390.22-486.78"/><path d="m-45.127 205.85c143.82-32.81 56.739 185.23 382.72 154.96 146.04-13.55 482.93-362.99 390.21-486.78"/><path d="m-39.185 231.89c143.82-32.81 56.738 185.23 382.72 154.96 146.03-13.55 482.92-362.99 390.2-486.78"/><path d="m-32.913 259.38c143.82-32.82 56.739 185.23 382.71 154.96 146.04-13.56 482.94-362.99 390.22-486.79"/><path d="m-26.971 285.42c143.82-32.82 56.738 185.23 382.71 154.96 146.04-13.56 482.94-362.99 390.22-486.79"/></g></g></svg>